<svg width="16" height="16" viewBox="0 0 16 16" fill="none" xmlns="http://www.w3.org/2000/svg">
<path d="M8 0.8C7.04522 1.75479 6.50884 3.04974 6.50884 4.4C6.50884 5.75027 7.04522 7.04522 8 8C8.95479 8.95479 10.2497 9.49117 11.6 9.49117C12.9503 9.49117 14.2452 8.95479 15.2 8C15.2 9.4241 14.7778 10.8161 13.9866 12.0001C13.1954 13.1842 12.0709 14.1069 10.7533 14.6519C9.43569 15.1969 7.98401 15.3395 5.59536 15.0617C5.19869 15.0239 3.91577 14.6981 2.90884 13.6912C1.90191 12.6843 1.21617 11.2013 0.938349 9.40065C0.660528 7.59998 0.802921 5.53631 1.34806 4.04468C1.89303 2.67858 2.81658 1.67658 3.9999 0.933427C5.18394 0.190229 6.57598 0.8 8 0.8Z" stroke="currentColor" stroke-width="1.6" stroke-linecap="round" stroke-linejoin="round"/>
</svg>
