<svg preserveAspectRatio="none" width="100%" height="100%" overflow="visible" style="display: block;" viewBox="0 0 20 20" fill="none" xmlns="http://www.w3.org/2000/svg">
<g id="Icon" opacity="0.8">
<path id="Vector" d="M16.6667 10.8334C16.6667 15 13.75 17.0834 10.2833 18.2917C10.1018 18.3532 9.90461 18.3503 9.725 18.2834C6.25 17.0834 3.33333 15 3.33333 10.8334V5.00002C3.33333 4.77901 3.42113 4.56704 3.57741 4.41076C3.73369 4.25448 3.94565 4.16669 4.16667 4.16669C5.83333 4.16669 7.91667 3.16669 9.36667 1.90002C9.54321 1.74918 9.76779 1.66631 10 1.66631C10.2322 1.66631 10.4568 1.74918 10.6333 1.90002C12.0917 3.17502 14.1667 4.16669 15.8333 4.16669C16.0543 4.16669 16.2663 4.25448 16.4226 4.41076C16.5789 4.56704 16.6667 4.77901 16.6667 5.00002V10.8334Z" stroke="var(--stroke-0, #4A4A4A)" stroke-width="1.66667" stroke-linecap="round" stroke-linejoin="round"/>
</g>
</svg>
